<svg xmlns="http://www.w3.org/2000/svg" xml:space="preserve" style="fill-rule:evenodd;clip-rule:evenodd;stroke-linejoin:round;stroke-miterlimit:2" viewBox="0 0 624 365"><path d="M0 0h623.492v364.193H0z" style="fill:none"/><path d="M14.177 274.492c72.235 0 104.467-62.25 104.467-137.917S107.423 15.381 84.161 15.381c-23.262 0-39.28 39.667-39.28 121.194S76.818 268.28 140.307 268.28c63.49 0 92.189-20.491 103.548-62.822 11.358-42.331-12.604-66.379-41.514-66.379-28.909 0-52.843 22.931-44.468 61.285s53.334 65.625 99.469 65.625c46.135 0 103.553-11.778 113.215-55.6 9.662-43.823-15.475-73.814-45.059-73.814-29.584 0-51.577 32.396-42.658 71.349 8.918 38.954 70.978 56.306 126.168 56.306 23.863 0 55.583-2.965 73.127-38.289 17.544-35.324 6.463-89.979-33.29-89.979s-39.837 57.285-39.837 128.268 76.084 81.891 76.084 81.891M526.146 136.575c-4.06 23.266-21.591 127.447 32.584 127.447 54.176 0 41.033-96.014 44.34-127.447 1.173-11.152 12.663 136.28-13.607 176.194-26.269 39.914-68.072 33.352-68.072 33.352" style="fill:none;stroke:#000;stroke-width:20.83px;stroke-linecap:round;stroke-miterlimit:1.5"/></svg>
